<svg xmlns="http://www.w3.org/2000/svg" width="461" height="147" fill="none"><path fill="#fff" fill-rule="evenodd" d="M18.53.934C8.59.931.528 8.987.525 18.928L.49 128.146c-.003 9.941 8.053 18.002 17.994 18.006l423.817.131c9.941.003 18.002-8.053 18.005-17.994l.034-109.218c.003-9.94-8.053-18.002-17.994-18.005L18.53.934Zm1.078 135.146c-2.987 0-5.419-.981-7.296-2.944-1.792-1.877-2.688-4.267-2.688-7.168V20.752c0-2.901.896-5.29 2.688-7.168 1.877-1.963 4.31-2.944 7.296-2.944h19.84v8.832h-16.64c-2.304 0-3.456 1.28-3.456 3.84v100.096c0 2.56 1.152 3.84 3.456 3.84h16.64v8.832h-19.84Zm22.267-4.48L79.507 16.4h10.112L51.987 131.6H41.875Zm53.391-35.2v9.6h44.8c5.205 0 9.813-.896 13.824-2.688 4.096-1.877 7.296-4.565 9.6-8.064 2.389-3.584 3.584-7.808 3.584-12.672v-1.28c0-4.181-.811-7.637-2.432-10.368-1.536-2.73-3.456-4.821-5.76-6.272-2.304-1.536-4.523-2.56-6.656-3.072v-1.792c2.133-.683 4.309-1.75 6.528-3.2 2.219-1.536 4.139-3.627 5.76-6.272 1.621-2.73 2.432-6.187 2.432-10.368v-1.024c0-4.523-1.152-8.448-3.456-11.776-2.219-3.413-5.376-6.059-9.472-7.936-4.011-1.877-8.619-2.816-13.824-2.816H95.266V26h12.544v70.4H95.266Zm43.648-.128h-20.352V65.68h20.352c5.632 0 9.941 1.323 12.928 3.968s4.48 6.23 4.48 10.752v1.152c0 4.523-1.493 8.107-4.48 10.752-2.987 2.645-7.296 3.968-12.928 3.968Zm.384-40.32h-20.736V26.128h20.736c5.205 0 9.301 1.323 12.288 3.968 3.072 2.56 4.608 6.016 4.608 10.368v1.28c0 4.267-1.536 7.723-4.608 10.368-3.072 2.56-7.168 3.84-12.288 3.84ZM179.891 106v-9.6h12.544V26h-12.544v-9.6h44.928c5.205 0 9.813.939 13.824 2.816 4.096 1.877 7.253 4.523 9.472 7.936 2.304 3.328 3.456 7.253 3.456 11.776v1.024c0 4.181-.811 7.637-2.432 10.368-1.621 2.645-3.541 4.736-5.76 6.272-2.219 1.45-4.395 2.517-6.528 3.2v1.792c2.133.512 4.352 1.536 6.656 3.072 2.304 1.45 4.224 3.541 5.76 6.272 1.621 2.73 2.432 6.187 2.432 10.368v1.28c0 4.864-1.195 9.088-3.584 12.672-2.304 3.499-5.504 6.187-9.6 8.064-4.011 1.792-8.619 2.688-13.824 2.688h-44.8Zm23.296-9.728h20.352c5.632 0 9.941-1.323 12.928-3.968s4.48-6.23 4.48-10.752V80.4c0-4.523-1.493-8.107-4.48-10.752-2.987-2.645-7.296-3.968-12.928-3.968h-20.352v30.592Zm0-40.32h20.736c5.12 0 9.216-1.28 12.288-3.84 3.072-2.645 4.608-6.101 4.608-10.368v-1.28c0-4.352-1.536-7.808-4.608-10.368-2.987-2.645-7.083-3.968-12.288-3.968h-20.736v29.824Zm78.097 47.872c4.864 2.645 10.453 3.968 16.768 3.968 6.315 0 11.861-1.323 16.64-3.968 4.864-2.645 8.619-6.357 11.264-11.136 2.731-4.864 4.096-10.581 4.096-17.152v-1.664c0-6.485-1.365-12.16-4.096-17.024-2.645-4.864-6.4-8.619-11.264-11.264-4.779-2.645-10.325-3.968-16.64-3.968-6.315 0-11.904 1.323-16.768 3.968-4.779 2.645-8.533 6.4-11.264 11.264-2.645 4.864-3.968 10.539-3.968 17.024v1.664c0 6.57 1.323 12.288 3.968 17.152 2.731 4.779 6.485 8.491 11.264 11.136Zm32.64-11.392c-3.925 4.181-9.216 6.272-15.872 6.272-6.571 0-11.861-2.09-15.872-6.272-4.011-4.267-6.016-9.984-6.016-17.152v-1.152c0-7.168 2.005-12.843 6.016-17.024 4.011-4.267 9.301-6.4 15.872-6.4 6.656 0 11.947 2.133 15.872 6.4 4.011 4.181 6.016 9.856 6.016 17.024v1.152c0 7.168-2.005 12.885-6.016 17.152Zm69.013 15.36c-6.485 0-11.563-1.237-15.232-3.712-3.584-2.475-6.187-5.29-7.808-8.448h-1.792V106h-9.856V16.4h10.112v36.864h1.792c1.024-1.963 2.475-3.797 4.352-5.504 1.877-1.792 4.309-3.243 7.296-4.352 3.072-1.195 6.784-1.792 11.136-1.792 5.461 0 10.411 1.323 14.848 3.968 4.523 2.56 8.107 6.272 10.752 11.136 2.645 4.779 3.968 10.496 3.968 17.152v1.664c0 6.656-1.365 12.416-4.096 17.28-2.645 4.864-6.229 8.576-10.752 11.136-4.437 2.56-9.344 3.84-14.72 3.84Zm-2.688-8.96c6.485 0 11.733-2.048 15.744-6.144 4.096-4.181 6.144-9.984 6.144-17.408v-1.152c0-7.424-2.048-13.184-6.144-17.28-4.011-4.181-9.259-6.272-15.744-6.272-6.4 0-11.691 2.09-15.872 6.272-4.096 4.096-6.144 9.856-6.144 17.28v1.152c0 7.424 2.048 13.227 6.144 17.408 4.181 4.096 9.472 6.144 15.872 6.144Zm41.433 28.416v8.832h19.968c2.901 0 5.248-.981 7.04-2.944 1.877-1.877 2.816-4.267 2.816-7.168V20.752c0-2.901-.939-5.29-2.816-7.168-1.792-1.963-4.139-2.944-7.04-2.944h-19.968v8.832h16.64c2.304 0 3.456 1.28 3.456 3.84v100.096c0 2.56-1.152 3.84-3.456 3.84h-16.64Z" clip-rule="evenodd"/></svg>
